<svg width="94" height="88" viewBox="0 0 94 88" fill="none" xmlns="http://www.w3.org/2000/svg">
<rect x="41.0707" y="15.3612" width="73.3965" height="14.8192" transform="rotate(110.892 41.0707 15.3612)" fill="#F1F1F1" stroke="black" stroke-width="0.5"/>
<path d="M26.6193 10.8221L0.624079 78.926C0.15144 80.1642 1.1805 80.557 1.1805 80.557C1.1805 80.557 2.20956 80.9498 2.68221 79.7116L28.2048 12.8459C28.4411 12.2268 29.192 11.8041 29.7065 12.0005L37.939 15.1428C38.4535 15.3392 38.7317 16.1547 38.4954 16.7738L12.9728 83.6395C12.5002 84.8778 13.5293 85.2706 13.5293 85.2706C13.5293 85.2706 14.5583 85.6633 15.031 84.4251L41.0262 16.3212C41.4988 15.0829 40.9424 13.4519 39.9133 13.0591L29.6227 9.13115C28.5936 8.73836 27.0919 9.58382 26.6193 10.8221Z" fill="#571F00" stroke="black"/>
<path d="M29.0813 16.7271L4.86745 80.1641L7.95465 81.3425M7.95465 81.3425L11.0418 82.5209L35.2557 19.0839M7.95465 81.3425L31.6959 19.1438" stroke="black" stroke-width="0.8" stroke-linecap="round"/>
<path d="M77.2279 70.8696L78.5869 69.932C78.6296 69.9025 78.6427 69.8452 78.6169 69.8001L75.5613 64.4435C75.5323 64.3926 75.4659 64.3774 75.4177 64.4107L73.9719 65.4082C73.9286 65.4381 73.9159 65.4963 73.9427 65.5415L77.0851 70.8384C77.1146 70.8882 77.1802 70.9025 77.2279 70.8696Z" fill="#B0B0B0" stroke="black" stroke-width="0.6" stroke-linecap="round"/>
<path d="M72.9619 63.6327L74.3209 62.695C74.3636 62.6656 74.3767 62.6083 74.351 62.5632L71.2953 57.2065C71.2663 57.1556 71.1999 57.1405 71.1517 57.1737L69.7059 58.1713C69.6626 58.2011 69.6499 58.2594 69.6767 58.3046L72.8191 63.6014C72.8486 63.6512 72.9142 63.6656 72.9619 63.6327Z" fill="#B0B0B0" stroke="black" stroke-width="0.6" stroke-linecap="round"/>
<path d="M81.4938 78.1065L82.8528 77.1689C82.8956 77.1394 82.9086 77.0821 82.8829 77.037L79.8273 71.6804C79.7982 71.6295 79.7319 71.6143 79.6836 71.6476L78.2379 72.6451C78.1946 72.675 78.1818 72.7332 78.2086 72.7784L81.351 78.0752C81.3806 78.1251 81.4461 78.1394 81.4938 78.1065Z" fill="#B0B0B0" stroke="black" stroke-width="0.6" stroke-linecap="round"/>
<path d="M58.7559 39.5485L60.1159 38.6102C60.1582 38.581 60.1715 38.5244 60.1466 38.4794L58.4969 35.4977C58.4683 35.446 58.4013 35.4302 58.3526 35.4638L56.908 36.4605C56.8648 36.4904 56.852 36.5486 56.8788 36.5938L58.6131 39.5172C58.6427 39.567 58.7082 39.5814 58.7559 39.5485Z" fill="#696969" stroke="black" stroke-width="0.6" stroke-linecap="round"/>
<path d="M56.0417 34.8768L57.4017 33.9384C57.444 33.9092 57.4573 33.8527 57.4324 33.8077L55.7826 30.826C55.754 30.7743 55.687 30.7585 55.6384 30.7921L54.1938 31.7888C54.1505 31.8186 54.1377 31.8769 54.1646 31.9221L55.8989 34.8455C55.9284 34.8953 55.994 34.9097 56.0417 34.8768Z" fill="#696969" stroke="black" stroke-width="0.6" stroke-linecap="round"/>
<path d="M61.4702 44.2202L62.8302 43.2819C62.8725 43.2527 62.8858 43.1962 62.8609 43.1512L61.2111 40.1694C61.1825 40.1177 61.1155 40.102 61.0669 40.1355L59.6223 41.1322C59.579 41.1621 59.5662 41.2204 59.5931 41.2656L61.3274 44.1889C61.3569 44.2388 61.4225 44.2531 61.4702 44.2202Z" fill="#696969" stroke="black" stroke-width="0.6" stroke-linecap="round"/>
<path d="M64.1844 48.892L65.5444 47.9536C65.5868 47.9244 65.6 47.8679 65.5751 47.8229L63.9254 44.8412C63.8968 44.7895 63.8298 44.7737 63.7811 44.8073L62.3365 45.804C62.2933 45.8338 62.2805 45.8921 62.3073 45.9373L64.0416 48.8607C64.0712 48.9105 64.1368 48.9249 64.1844 48.892Z" fill="#696969" stroke="black" stroke-width="0.6" stroke-linecap="round"/>
<path d="M68.6959 56.3958L70.0549 55.4581C70.0977 55.4287 70.1107 55.3714 70.085 55.3263L67.0294 49.9696C67.0003 49.9187 66.934 49.9036 66.8857 49.9369L65.44 50.9344C65.3967 50.9642 65.3839 51.0225 65.4107 51.0677L68.5531 56.3645C68.5827 56.4143 68.6482 56.4287 68.6959 56.3958Z" fill="#B0B0B0" stroke="black" stroke-width="0.6" stroke-linecap="round"/>
<path d="M75.394 79.4118L80.2687 83.7034C80.6131 84.0066 81.1197 84.0365 81.4974 83.7759L83.8106 82.1799L53.269 30.5362L51.2984 31.8958L41.9986 0.500005L37.693 3.47064C37.3255 3.7242 37.1706 4.19065 37.3134 4.61367L41.1843 16.0769C41.2303 16.2133 41.2464 16.3581 41.2313 16.5013L40.1391 26.8972C40.1145 27.1314 40.1733 27.3667 40.3052 27.5618L75.2263 79.2213C75.2739 79.2917 75.3302 79.3557 75.394 79.4118Z" fill="#848484"/>
<path d="M51.2984 31.8958L41.9986 0.500006L37.693 3.47065C37.3255 3.7242 37.1706 4.19065 37.3134 4.61367L41.1843 16.0769C41.2303 16.2133 41.2464 16.3581 41.2313 16.5013L40.1391 26.8972C40.1145 27.1314 40.1733 27.3667 40.3052 27.5618L75.2263 79.2213C75.2739 79.2917 75.3302 79.3557 75.394 79.4118L80.2687 83.7034C80.6131 84.0066 81.1197 84.0365 81.4974 83.7759L83.8106 82.1799M51.2984 31.8958L53.269 30.5362L83.8106 82.1799M51.2984 31.8958L82.998 82.014C83.1726 82.29 83.5417 82.3654 83.8106 82.1799" stroke="black" stroke-linecap="round" stroke-linejoin="round"/>
<path d="M40.028 1.85963L51.2984 31.8958L53.269 30.5362L41.9986 0.500029L40.028 1.85963Z" fill="#5A5A5A" stroke="black" stroke-linecap="round" stroke-linejoin="round"/>
<path d="M64.4744 79.5191L19.0949 58.3564C19.0449 58.3331 19.0428 58.2827 19.0661 58.2326L20.4454 55.275L21.867 52.2266L23.2463 49.269C23.2696 49.2189 23.3291 49.1973 23.3792 49.2206L68.7366 70.373C68.7867 70.3964 68.8083 70.4559 68.785 70.5059L67.4057 73.4636L65.9841 76.5119L64.6048 79.4696C64.5814 79.5196 64.5245 79.5425 64.4744 79.5191Z" fill="#ECE53C" stroke="black"/>
<path d="M66.2443 76.6333L20.6104 55.3519C20.5603 55.3286 20.5387 55.2691 20.562 55.219L21.8991 52.352C21.9224 52.3019 21.9819 52.2803 22.032 52.3036L67.6659 73.585" stroke="black" stroke-width="0.7"/>
<path d="M21.4331 48.4986L17.3105 57.3387C17.2713 57.4229 17.1712 57.4593 17.087 57.42L10.1057 54.1643C10.0215 54.125 9.98509 54.025 10.0243 53.9408L14.1469 45.1007C14.1862 45.0165 14.2862 44.9801 14.3704 45.0194L21.3518 48.2751C21.4359 48.3144 21.4724 48.4144 21.4331 48.4986Z" fill="#FF7575" stroke="black" stroke-width="1.2"/>
<path d="M70.554 71.3711L66.4046 80.2687C66.376 80.33 66.4152 80.4013 66.4822 80.4101L82.6447 82.5312C82.7416 82.5439 82.7973 82.4244 82.7253 82.3583L70.7122 71.3397C70.6624 71.294 70.5825 71.3099 70.554 71.3711Z" fill="#FFC635" stroke="black" stroke-width="1.2"/>
<mask id="mask0_2202_15" style="mask-type:alpha" maskUnits="userSpaceOnUse" x="65" y="70" width="19" height="14">
<path d="M70.554 71.3711L66.4046 80.2687C66.376 80.33 66.4152 80.4013 66.4822 80.4101L82.6447 82.5312C82.7416 82.5439 82.7973 82.4244 82.7253 82.3583L70.7122 71.3397C70.6624 71.294 70.5825 71.3099 70.554 71.3711Z" fill="#FFC635" stroke="black" stroke-width="1.2"/>
</mask>
<g mask="url(#mask0_2202_15)">
<rect x="73.2569" y="85.4704" width="13.4539" height="11.7722" transform="rotate(-64.998 73.2569 85.4704)" fill="#2B2B2B"/>
</g>
</svg>
