<svg width="128" height="128" viewBox="0 0 128 128" fill="none" xmlns="http://www.w3.org/2000/svg">
<mask id="mask0_22_95" style="mask-type:alpha" maskUnits="userSpaceOnUse" x="0" y="0" width="128" height="128">
<rect width="128" height="128" fill="#D9D9D9"/>
</mask>
<g mask="url(#mask0_22_95)">
<path d="M14.3448 -3.31035L77.2414 131.31M14.3448 -3.31035L77.2414 131.31M14.3448 -3.31035L77.2414 131.31" stroke="white" stroke-opacity="0.6" stroke-width="1.8"/>
<path d="M27.5862 -3.31035L90.4828 131.31M27.5862 -3.31035L90.4828 131.31M27.5862 -3.31035L90.4828 131.31" stroke="white" stroke-opacity="0.6" stroke-width="1.8"/>
<path d="M40.8276 -3.31035L103.724 131.31M40.8276 -3.31035L103.724 131.31M40.8276 -3.31035L103.724 131.31" stroke="white" stroke-opacity="0.6" stroke-width="1.8"/>
<path d="M54.069 -3.31035L116.966 131.31M54.069 -3.31035L116.966 131.31M54.069 -3.31035L116.966 131.31" stroke="white" stroke-opacity="0.6" stroke-width="1.8"/>
<path d="M67.3103 -3.31035L130.207 131.31M67.3103 -3.31035L130.207 131.31M67.3103 -3.31035L130.207 131.31" stroke="white" stroke-opacity="0.6" stroke-width="1.8"/>
<path d="M80.5517 -3.31035L143.448 131.31M80.5517 -3.31035L143.448 131.31M80.5517 -3.31035L143.448 131.31" stroke="white" stroke-opacity="0.6" stroke-width="1.8"/>
<path d="M93.7931 -3.31035L156.69 131.31M93.7931 -3.31035L156.69 131.31M93.7931 -3.31035L156.69 131.31" stroke="white" stroke-opacity="0.6" stroke-width="1.8"/>
<path d="M107.034 -3.31035L169.931 131.31M107.034 -3.31035L169.931 131.31M107.034 -3.31035L169.931 131.31" stroke="white" stroke-opacity="0.6" stroke-width="1.8"/>
<path d="M1.10345 -3.31035L64 131.31M1.10345 -3.31035L64 131.31M1.10345 -3.31035L64 131.31" stroke="white" stroke-opacity="0.6" stroke-width="1.8"/>
<path d="M-12.1379 -3.31035L50.7586 131.31M-12.1379 -3.31035L50.7586 131.31M-12.1379 -3.31035L50.7586 131.31" stroke="white" stroke-opacity="0.6" stroke-width="1.8"/>
<path d="M-25.3793 -3.31035L37.5172 131.31M-25.3793 -3.31035L37.5172 131.31M-25.3793 -3.31035L37.5172 131.31" stroke="white" stroke-opacity="0.6" stroke-width="1.8"/>
<path d="M-38.6207 -3.31035L24.2759 131.31M-38.6207 -3.31035L24.2759 131.31M-38.6207 -3.31035L24.2759 131.31" stroke="white" stroke-opacity="0.6" stroke-width="1.8"/>
<path d="M-51.8621 -3.31035L11.0345 131.31M-51.8621 -3.31035L11.0345 131.31M-51.8621 -3.31035L11.0345 131.31" stroke="white" stroke-opacity="0.6" stroke-width="1.8"/>
<path d="M120.276 -3.31035L183.172 131.31M120.276 -3.31035L183.172 131.31M120.276 -3.31035L183.172 131.31" stroke="white" stroke-opacity="0.6" stroke-width="1.8"/>
<path d="M132.966 12.6897L-1.65519 75.5862M132.966 12.6897L-1.65519 75.5862M132.966 12.6897L-1.65519 75.5862" stroke="white" stroke-opacity="0.6" stroke-width="1.8"/>
<path d="M132.966 25.931L-1.65519 88.8276M132.966 25.931L-1.65519 88.8276M132.966 25.931L-1.65519 88.8276" stroke="white" stroke-opacity="0.6" stroke-width="1.8"/>
<path d="M132.966 39.1724L-1.65519 102.069M132.966 39.1724L-1.65519 102.069M132.966 39.1724L-1.65519 102.069" stroke="white" stroke-opacity="0.6" stroke-width="1.8"/>
<path d="M132.966 52.4138L-1.65519 115.31M132.966 52.4138L-1.65519 115.31M132.966 52.4138L-1.65519 115.31" stroke="white" stroke-opacity="0.6" stroke-width="1.8"/>
<path d="M132.966 65.6552L-1.65519 128.552M132.966 65.6552L-1.65519 128.552M132.966 65.6552L-1.65519 128.552" stroke="white" stroke-opacity="0.6" stroke-width="1.8"/>
<path d="M132.966 78.8965L-1.65519 141.793M132.966 78.8965L-1.65519 141.793M132.966 78.8965L-1.65519 141.793" stroke="white" stroke-opacity="0.6" stroke-width="1.8"/>
<path d="M132.966 92.1379L-1.65519 155.034M132.966 92.1379L-1.65519 155.034M132.966 92.1379L-1.65519 155.034" stroke="white" stroke-opacity="0.6" stroke-width="1.8"/>
<path d="M132.966 105.379L-1.65519 168.276M132.966 105.379L-1.65519 168.276M132.966 105.379L-1.65519 168.276" stroke="white" stroke-opacity="0.6" stroke-width="1.8"/>
<path d="M132.966 -0.551727L-1.65519 62.3448M132.966 -0.551727L-1.65519 62.3448M132.966 -0.551727L-1.65519 62.3448" stroke="white" stroke-opacity="0.6" stroke-width="1.8"/>
<path d="M132.966 -13.7931L-1.65519 49.1034M132.966 -13.7931L-1.65519 49.1034M132.966 -13.7931L-1.65519 49.1034" stroke="white" stroke-opacity="0.6" stroke-width="1.8"/>
<path d="M132.966 -27.0345L-1.65519 35.8621M132.966 -27.0345L-1.65519 35.8621M132.966 -27.0345L-1.65519 35.8621" stroke="white" stroke-opacity="0.6" stroke-width="1.8"/>
<path d="M132.966 -40.2759L-1.65518 22.6207M132.966 -40.2759L-1.65518 22.6207M132.966 -40.2759L-1.65518 22.6207" stroke="white" stroke-opacity="0.6" stroke-width="1.8"/>
<path d="M132.966 -53.5172L-1.65518 9.37931M132.966 -53.5172L-1.65518 9.37931M132.966 -53.5172L-1.65518 9.37931" stroke="white" stroke-opacity="0.6" stroke-width="1.8"/>
<path d="M132.966 118.621L-1.65519 181.517M132.966 118.621L-1.65519 181.517M132.966 118.621L-1.65519 181.517" stroke="white" stroke-opacity="0.6" stroke-width="1.8"/>
</g>
</svg>
